<svg width="199" height="64" viewBox="0 0 199 64" fill="none" xmlns="http://www.w3.org/2000/svg">
<path d="M48.6 24.68H53.42C54.22 24.68 54.96 24.86 55.64 25.22C56.32 25.58 56.86 26.0867 57.26 26.74C57.6733 27.38 57.88 28.1067 57.88 28.92C57.88 29.7333 57.6733 30.4667 57.26 31.12C56.86 31.76 56.32 32.26 55.64 32.62C54.96 32.98 54.22 33.16 53.42 33.16H50.28V39H48.6V24.68ZM53.46 31.54C53.9933 31.54 54.46 31.4133 54.86 31.16C55.2733 30.9067 55.5933 30.58 55.82 30.18C56.0467 29.78 56.16 29.36 56.16 28.92C56.16 28.48 56.0467 28.06 55.82 27.66C55.5933 27.26 55.2733 26.9333 54.86 26.68C54.46 26.4267 53.9933 26.3 53.46 26.3H50.28V31.54H53.46ZM63.7803 39.32C62.7803 39.32 61.8803 39.08 61.0803 38.6C60.2803 38.12 59.6536 37.4667 59.2003 36.64C58.7603 35.8133 58.5403 34.9 58.5403 33.9C58.5403 32.9 58.7603 31.9867 59.2003 31.16C59.6536 30.3333 60.2803 29.68 61.0803 29.2C61.8803 28.72 62.7803 28.48 63.7803 28.48C64.7803 28.48 65.6803 28.72 66.4803 29.2C67.2803 29.68 67.9003 30.3333 68.3403 31.16C68.7936 31.9867 69.0203 32.9 69.0203 33.9C69.0203 34.9 68.7936 35.8133 68.3403 36.64C67.9003 37.4667 67.2803 38.12 66.4803 38.6C65.6803 39.08 64.7803 39.32 63.7803 39.32ZM63.7803 37.78C64.407 37.78 64.987 37.6267 65.5203 37.32C66.067 37 66.5003 36.5467 66.8203 35.96C67.1536 35.3733 67.3203 34.6867 67.3203 33.9C67.3203 33.1133 67.1536 32.4267 66.8203 31.84C66.5003 31.2533 66.067 30.8067 65.5203 30.5C64.987 30.18 64.407 30.02 63.7803 30.02C63.1536 30.02 62.567 30.18 62.0203 30.5C61.4736 30.8067 61.0336 31.2533 60.7003 31.84C60.3803 32.4267 60.2203 33.1133 60.2203 33.9C60.2203 34.6867 60.3803 35.3733 60.7003 35.96C61.0336 36.5467 61.4736 37 62.0203 37.32C62.567 37.6267 63.1536 37.78 63.7803 37.78ZM70.8167 28.8H72.4367V30.32H72.5167C72.8234 29.8 73.2834 29.3667 73.8967 29.02C74.5234 28.66 75.2234 28.48 75.9967 28.48C76.9034 28.48 77.7301 28.7133 78.4767 29.18C79.2234 29.6467 79.8101 30.2933 80.2367 31.12C80.6634 31.9467 80.8767 32.8733 80.8767 33.9C80.8767 34.94 80.6634 35.8733 80.2367 36.7C79.8101 37.5133 79.2234 38.1533 78.4767 38.62C77.7301 39.0867 76.9034 39.32 75.9967 39.32C75.2234 39.32 74.5234 39.1467 73.8967 38.8C73.2834 38.44 72.8234 38.0067 72.5167 37.5H72.4367L72.5167 38.9V43.32H70.8167V28.8ZM75.7967 37.78C76.3834 37.78 76.9367 37.62 77.4567 37.3C77.9767 36.98 78.3901 36.5267 78.6967 35.94C79.0167 35.34 79.1767 34.66 79.1767 33.9C79.1767 33.14 79.0167 32.4667 78.6967 31.88C78.3901 31.28 77.9767 30.82 77.4567 30.5C76.9367 30.18 76.3834 30.02 75.7967 30.02C75.2101 30.02 74.6567 30.18 74.1367 30.5C73.6167 30.82 73.2034 31.2733 72.8967 31.86C72.5901 32.4467 72.4367 33.1267 72.4367 33.9C72.4367 34.6733 72.5901 35.3533 72.8967 35.94C73.2034 36.5267 73.6167 36.98 74.1367 37.3C74.6567 37.62 75.2101 37.78 75.7967 37.78ZM87.8383 24.68H92.6783C93.4649 24.68 94.1983 24.86 94.8783 25.22C95.5583 25.58 96.0983 26.0867 96.4983 26.74C96.9116 27.38 97.1183 28.1067 97.1183 28.92C97.1183 29.5867 96.9649 30.2067 96.6583 30.78C96.3649 31.3533 95.9516 31.8333 95.4183 32.22C94.8983 32.6067 94.3183 32.8667 93.6783 33L93.6383 33.06L97.6783 38.92V39H95.6783L91.7783 33.16H89.5183V39H87.8383V24.68ZM92.5783 31.58C93.0716 31.58 93.5316 31.4667 93.9583 31.24C94.3983 31.0133 94.7449 30.7 94.9983 30.3C95.2649 29.8867 95.3983 29.4267 95.3983 28.92C95.3983 28.48 95.2849 28.06 95.0583 27.66C94.8316 27.26 94.5116 26.9333 94.0983 26.68C93.6983 26.4267 93.2316 26.3 92.6983 26.3H89.5183V31.58H92.5783ZM103.722 39.32C102.722 39.32 101.822 39.08 101.022 38.6C100.222 38.12 99.5951 37.4667 99.1417 36.64C98.7017 35.8133 98.4817 34.9 98.4817 33.9C98.4817 32.9 98.7017 31.9867 99.1417 31.16C99.5951 30.3333 100.222 29.68 101.022 29.2C101.822 28.72 102.722 28.48 103.722 28.48C104.722 28.48 105.622 28.72 106.422 29.2C107.222 29.68 107.842 30.3333 108.282 31.16C108.735 31.9867 108.962 32.9 108.962 33.9C108.962 34.9 108.735 35.8133 108.282 36.64C107.842 37.4667 107.222 38.12 106.422 38.6C105.622 39.08 104.722 39.32 103.722 39.32ZM103.722 37.78C104.348 37.78 104.928 37.6267 105.462 37.32C106.008 37 106.442 36.5467 106.762 35.96C107.095 35.3733 107.262 34.6867 107.262 33.9C107.262 33.1133 107.095 32.4267 106.762 31.84C106.442 31.2533 106.008 30.8067 105.462 30.5C104.928 30.18 104.348 30.02 103.722 30.02C103.095 30.02 102.508 30.18 101.962 30.5C101.415 30.8067 100.975 31.2533 100.642 31.84C100.322 32.4267 100.162 33.1133 100.162 33.9C100.162 34.6867 100.322 35.3733 100.642 35.96C100.975 36.5467 101.415 37 101.962 37.32C102.508 37.6267 103.095 37.78 103.722 37.78ZM115.556 39.32C114.569 39.32 113.682 39.0867 112.896 38.62C112.109 38.14 111.496 37.4933 111.056 36.68C110.616 35.8533 110.396 34.9267 110.396 33.9C110.396 32.8733 110.616 31.9467 111.056 31.12C111.496 30.2933 112.109 29.6467 112.896 29.18C113.682 28.7133 114.569 28.48 115.556 28.48C116.662 28.48 117.589 28.74 118.336 29.26C119.096 29.7667 119.636 30.4467 119.956 31.3L118.416 31.94C118.162 31.3133 117.782 30.84 117.276 30.52C116.782 30.1867 116.182 30.02 115.476 30.02C114.876 30.02 114.316 30.1867 113.796 30.52C113.276 30.84 112.856 31.2933 112.536 31.88C112.229 32.4667 112.076 33.14 112.076 33.9C112.076 34.66 112.229 35.3333 112.536 35.92C112.856 36.5067 113.276 36.9667 113.796 37.3C114.316 37.62 114.876 37.78 115.476 37.78C116.196 37.78 116.816 37.6133 117.336 37.28C117.856 36.9467 118.242 36.4733 118.496 35.86L120.016 36.5C119.669 37.34 119.109 38.02 118.336 38.54C117.576 39.06 116.649 39.32 115.556 39.32ZM121.854 24.68H123.554V33.68L128.354 28.8H130.514V28.88L126.514 32.92L130.614 38.92V39H128.594L125.314 34.1L123.554 35.86V39H121.854V24.68ZM143.269 39.32C141.883 39.32 140.623 38.9933 139.489 38.34C138.356 37.6867 137.463 36.7933 136.809 35.66C136.169 34.5133 135.849 33.24 135.849 31.84C135.849 30.44 136.169 29.1733 136.809 28.04C137.463 26.8933 138.356 25.9933 139.489 25.34C140.623 24.6867 141.883 24.36 143.269 24.36C144.336 24.36 145.309 24.5667 146.189 24.98C147.083 25.38 147.856 25.9533 148.509 26.7L147.289 27.88C146.743 27.2267 146.143 26.7467 145.489 26.44C144.849 26.1333 144.109 25.98 143.269 25.98C142.229 25.98 141.276 26.2267 140.409 26.72C139.543 27.2 138.849 27.8867 138.329 28.78C137.823 29.66 137.569 30.68 137.569 31.84C137.569 33 137.823 34.0267 138.329 34.92C138.849 35.8 139.543 36.4867 140.409 36.98C141.276 37.46 142.229 37.7 143.269 37.7C145.003 37.7 146.476 36.9867 147.689 35.56L148.929 36.76C148.263 37.5467 147.443 38.1733 146.469 38.64C145.496 39.0933 144.429 39.32 143.269 39.32ZM150.838 28.8H152.458V30.44H152.538C152.738 29.88 153.125 29.42 153.698 29.06C154.271 28.6867 154.871 28.5 155.498 28.5C155.965 28.5 156.365 28.5667 156.698 28.7V30.54C156.271 30.3267 155.791 30.22 155.258 30.22C154.765 30.22 154.311 30.36 153.898 30.64C153.485 30.92 153.151 31.3 152.898 31.78C152.658 32.2467 152.538 32.7533 152.538 33.3V39H150.838V28.8ZM161.907 38.36L157.687 28.8H159.527L162.727 36.38H162.767L165.847 28.8H167.687L161.387 43.32H159.627L161.907 38.36ZM172.465 39.32C171.371 39.32 170.458 39.0667 169.725 38.56C168.991 38.04 168.471 37.38 168.165 36.58L169.685 35.9C169.938 36.5133 170.311 36.9867 170.805 37.32C171.311 37.6533 171.865 37.82 172.465 37.82C173.105 37.82 173.651 37.6933 174.105 37.44C174.558 37.1733 174.785 36.8 174.785 36.32C174.785 35.8933 174.605 35.5533 174.245 35.3C173.885 35.0333 173.318 34.8067 172.545 34.62L171.305 34.3C170.491 34.1 169.825 33.76 169.305 33.28C168.785 32.8 168.525 32.18 168.525 31.42C168.525 30.8333 168.698 30.32 169.045 29.88C169.405 29.4267 169.878 29.08 170.465 28.84C171.051 28.6 171.685 28.48 172.365 28.48C173.258 28.48 174.051 28.6733 174.745 29.06C175.451 29.4467 175.951 29.9867 176.245 30.68L174.765 31.36C174.311 30.4533 173.505 30 172.345 30C171.785 30 171.291 30.1333 170.865 30.4C170.451 30.6533 170.245 30.98 170.245 31.38C170.245 31.7533 170.391 32.06 170.685 32.3C170.978 32.5267 171.418 32.7133 172.005 32.86L173.485 33.24C174.485 33.4933 175.238 33.8733 175.745 34.38C176.251 34.8733 176.505 35.48 176.505 36.2C176.505 36.8267 176.325 37.38 175.965 37.86C175.605 38.3267 175.118 38.6867 174.505 38.94C173.891 39.1933 173.211 39.32 172.465 39.32ZM182.18 39.16C181.767 39.16 181.38 39.0933 181.02 38.96C180.673 38.8267 180.38 38.6467 180.14 38.42C179.873 38.1667 179.673 37.8733 179.54 37.54C179.407 37.2067 179.34 36.8 179.34 36.32V30.34H177.56V28.8H179.34V25.92H181.04V28.8H183.52V30.34H181.04V35.9C181.04 36.46 181.147 36.8733 181.36 37.14C181.613 37.4333 181.98 37.58 182.46 37.58C182.847 37.58 183.22 37.4667 183.58 37.24V38.9C183.38 38.9933 183.173 39.06 182.96 39.1C182.76 39.14 182.5 39.16 182.18 39.16ZM188.649 39.32C187.902 39.32 187.236 39.1733 186.649 38.88C186.062 38.5867 185.609 38.1867 185.289 37.68C184.969 37.16 184.809 36.5733 184.809 35.92C184.809 34.84 185.216 34 186.029 33.4C186.842 32.7867 187.869 32.48 189.109 32.48C189.722 32.48 190.289 32.5467 190.809 32.68C191.342 32.8133 191.749 32.9667 192.029 33.14V32.52C192.029 31.76 191.762 31.1533 191.229 30.7C190.696 30.2333 190.022 30 189.209 30C188.636 30 188.109 30.1267 187.629 30.38C187.149 30.62 186.769 30.96 186.489 31.4L185.209 30.44C185.609 29.8267 186.156 29.3467 186.849 29C187.556 28.6533 188.336 28.48 189.189 28.48C190.576 28.48 191.662 28.8467 192.449 29.58C193.249 30.3 193.649 31.2867 193.649 32.54V39H192.029V37.54H191.949C191.656 38.0333 191.216 38.4533 190.629 38.8C190.042 39.1467 189.382 39.32 188.649 39.32ZM188.809 37.82C189.382 37.82 189.916 37.6733 190.409 37.38C190.902 37.0867 191.296 36.6933 191.589 36.2C191.882 35.7067 192.029 35.1667 192.029 34.58C191.709 34.3667 191.316 34.1933 190.849 34.06C190.382 33.9267 189.889 33.86 189.369 33.86C188.436 33.86 187.729 34.0533 187.249 34.44C186.782 34.8267 186.549 35.3267 186.549 35.94C186.549 36.5 186.762 36.9533 187.189 37.3C187.616 37.6467 188.156 37.82 188.809 37.82ZM196.014 24.68H197.714V39H196.014V24.68Z" fill="white"/>
<g clip-path="url(#clip0_1_52)">
<path d="M18.5219 0C8.29537 0 0 8.44103 0 18.8472V45.1975C0 55.6036 8.29537 64.0447 18.5219 64.0447C28.7485 64.0447 37.0439 55.6036 37.0439 45.1975V18.8472C37 8.44103 28.7046 0 18.5219 0ZM35.5516 45.1975C35.5516 54.7551 27.9146 62.5262 18.5219 62.5262C9.1293 62.5262 1.49229 54.7551 1.49229 45.1975V18.8472C1.49229 9.2896 9.1293 1.51849 18.5219 1.51849C27.9146 1.51849 35.5516 9.2896 35.5516 18.8472V45.1975Z" fill="white"/>
<path d="M12.7725 22.4201L24.7108 36.8904L31.8211 28.2708L26.0275 22.4201H12.7725ZM23.9646 23.8939L19.6195 28.3154L15.9765 23.8939H23.9646ZM24.7108 34.5234L20.5412 29.4766L25.7203 24.2066L29.7582 28.3154L24.7108 34.5234Z" fill="white"/>
<path d="M5.22313 28.2707L18.5221 44.4382L23.5695 38.3196L10.7095 22.688L5.22313 28.2707ZM18.5221 42.0712L7.19822 28.3601L10.5778 24.9211L21.5944 38.3196L18.5221 42.0712Z" fill="white"/>
</g>
<defs>
<clipPath id="clip0_1_52">
<rect width="37" height="64" fill="white"/>
</clipPath>
</defs>
</svg>
